# xmcd
# Copyright (C) 1995-1998 Ti Kan
#
# Track frame offsets:
#       150
#       17934
#       29978
#       41936
#       57101
#       80970
#       98374
#       116340
#       129410
#       143378
#       160200
#       176186
#
# Disc length: 2600 seconds
#
# Revision: 0
# Processed by: cddbd v1.5.2PL0 Copyright (c) Steve Scherf et al.
# Submitted via: CD-Import v1.0
#
DISCID=a20a260c
DTITLE=Harrisons - No Fighting In The War Room
DYEAR=2008
DGENRE=
TTITLE0=Dear Constable
TTITLE1=Man Of The Hour
TTITLE2=Wishing Well
TTITLE3=Little Boy Lost
TTITLE4=Simmer Away
TTITLE5=Take It To The Mattress
TTITLE6=Listen
TTITLE7=Monday's Arms
TTITLE8=Medication Time
TTITLE9=Crystal Sweet
TTITLE10=Blue Note
TTITLE11=Come For Me
EXTD=
EXTT0=
EXTT1=
EXTT2=
EXTT3=
EXTT4=
EXTT5=
EXTT6=
EXTT7=
EXTT8=
EXTT9=
EXTT10=
EXTT11=
PLAYORDER=
